<?xml version="1.0" encoding="UTF-8" standalone="no"?>
<!-- Created with Inkscape (http://www.inkscape.org/) -->

<svg
   xmlns:dc="http://purl.org/dc/elements/1.1/"
   xmlns:cc="http://creativecommons.org/ns#"
   xmlns:rdf="http://www.w3.org/1999/02/22-rdf-syntax-ns#"
   xmlns:svg="http://www.w3.org/2000/svg"
   xmlns="http://www.w3.org/2000/svg"
   xmlns:sodipodi="http://sodipodi.sourceforge.net/DTD/sodipodi-0.dtd"
   xmlns:inkscape="http://www.inkscape.org/namespaces/inkscape"
   width="691.80597"
   height="476.62122"
   id="svg2"
   version="1.1"
   inkscape:version="0.47 r22583"
   sodipodi:docname="rock_scissors_paper1.svg">
  <title
     id="title4919">Rock Scissors Paper</title>
  <sodipodi:namedview
     id="base"
     pagecolor="#ffffff"
     bordercolor="#666666"
     borderopacity="1.0"
     inkscape:pageopacity="0.0"
     inkscape:pageshadow="2"
     inkscape:zoom="0.98994949"
     inkscape:cx="491.72724"
     inkscape:cy="243.04793"
     inkscape:document-units="px"
     inkscape:current-layer="layer1"
     showgrid="false"
     inkscape:window-width="1280"
     inkscape:window-height="753"
     inkscape:window-x="-4"
     inkscape:window-y="-4"
     inkscape:window-maximized="1" />
  <defs
     id="defs4">
    <marker
       inkscape:stockid="Arrow2Mend"
       orient="auto"
       refY="0"
       refX="0"
       id="Arrow2Mend"
       style="overflow:visible">
      <path
         id="path4038"
         style="font-size:12px;fill-rule:evenodd;stroke-width:0.625;stroke-linejoin:round"
         d="M 8.7185878,4.0337352 -2.2072895,0.01601326 8.7185884,-4.0017078 c -1.7454984,2.3720609 -1.7354408,5.6174519 -6e-7,8.035443 z"
         transform="scale(-0.6,-0.6)" />
    </marker>
  </defs>
  <metadata
     id="metadata7">
    <rdf:RDF>
      <cc:Work
         rdf:about="">
        <dc:format>image/svg+xml</dc:format>
        <dc:type
           rdf:resource="http://purl.org/dc/dcmitype/StillImage" />
        <dc:title>Rock Scissors Paper</dc:title>
        <cc:license
           rdf:resource="http://creativecommons.org/licenses/publicdomain/" />
        <dc:date>2010-05-31</dc:date>
        <dc:creator>
          <cc:Agent>
            <dc:title>mazeo</dc:title>
          </cc:Agent>
        </dc:creator>
        <dc:publisher>
          <cc:Agent>
            <dc:title>openclipart.org</dc:title>
          </cc:Agent>
        </dc:publisher>
        <dc:language>en</dc:language>
        <dc:subject>
          <rdf:Bag>
            <rdf:li>remix</rdf:li>
            <rdf:li>rock</rdf:li>
            <rdf:li>scissors</rdf:li>
            <rdf:li>scissor</rdf:li>
            <rdf:li>paper</rdf:li>
            <rdf:li>rock scissors paper</rdf:li>
            <rdf:li>rock paper scissors</rdf:li>
            <rdf:li>paper rock scissors</rdf:li>
            <rdf:li>paper scissors rock</rdf:li>
            <rdf:li>scissors rock paper</rdf:li>
            <rdf:li>scissors paper rock</rdf:li>
            <rdf:li>hand</rdf:li>
            <rdf:li>hands</rdf:li>
            <rdf:li>fist</rdf:li>
            <rdf:li>fingers</rdf:li>
          </rdf:Bag>
        </dc:subject>
        <dc:description>Rock Scissors Paper hand game depiction.</dc:description>
        <dc:contributor>
          <cc:Agent>
            <dc:title>Rock, scissors, and paper by Francesco 'Architetto' Rollandin from openclipart.org</dc:title>
          </cc:Agent>
        </dc:contributor>
      </cc:Work>
      <cc:License
         rdf:about="http://creativecommons.org/licenses/publicdomain/">
        <cc:permits
           rdf:resource="http://creativecommons.org/ns#Reproduction" />
        <cc:permits
           rdf:resource="http://creativecommons.org/ns#Distribution" />
        <cc:permits
           rdf:resource="http://creativecommons.org/ns#DerivativeWorks" />
      </cc:License>
    </rdf:RDF>
  </metadata>
  <g
     inkscape:label="Layer 1"
     inkscape:groupmode="layer"
     id="layer1"
     transform="translate(-42.612357,-137.16448)">
    <g
       id="g4875"
       transform="matrix(0.77244113,0,0,0.77244113,192.28313,-14.823724)">
      <g
         transform="matrix(-0.84211607,0.17678029,0.17678029,0.84211607,677.84094,268.60123)"
         id="g2906"
         style="overflow:visible">
        <path
           d="m 259.076,17.719 c -4.01,-0.256 -2.042,5.467 -6.258,5.006 -2.182,-2.162 -1.385,-7.737 1.251,-8.761 0.281,0.971 0.035,2.469 1.252,2.503 0.28,-0.97 0.034,-2.468 1.251,-2.503 0.299,1.786 2.062,2.111 2.504,3.755 z"
           id="path3" />
        <path
           d="m 173.969,17.719 c -1.584,1.436 -9.868,2.515 -11.265,0 4.306,0.479 7.803,-6.286 11.265,-2.503 -1.511,0.264 -0.771,1.389 0,2.503 z"
           id="path5" />
        <path
           d="m 240.303,20.221 c -1.901,1.276 -8.113,-1.155 -10.014,-3.754 5.03,-0.44 9.158,0.02 10.014,3.754 z"
           id="path7" />
        <path
           d="m 290.365,57.769 c 1.164,-2.922 4.529,-10.066 0,-5.006 -1.437,-2.351 -0.207,-10.399 5.006,-10.013 0.505,7.179 0.247,13.597 -5.006,15.019 z"
           id="path9" />
        <path
           d="m 112.876,15.406 c -6.257,0 -12.516,0 -18.773,0 -0.743,-0.873 29.706,-4.351 18.773,0 z"
           id="path11" />
        <path
           d="m 369.214,86.556 c -0.326,-1.948 -2.745,-0.868 -3.754,0 3.313,-2.11 1.396,-9.449 3.754,-12.516 1.525,1.894 2.458,10.78 0,12.516 z"
           id="path13" />
        <path
           d="m 295.371,89.058 c 1.109,-4.731 0.937,-10.745 3.756,-13.767 -0.142,5.699 -0.024,11.657 -3.756,13.767 z"
           id="path15" />
        <path
           d="m 191.491,85.303 c -7.078,-0.848 -17.994,2.142 -21.276,-2.503 9.66,0.83 16.427,-3.137 21.276,2.503 z"
           id="path17" />
        <path
           d="m 334.171,125.354 c -1.795,-1.543 -2.371,-4.304 -2.503,-7.51 2.142,-1.195 2.521,-4.152 5.006,-5.005 -1.2,3.807 2.68,12.692 -2.503,12.515 z"
           id="path19" />
        <path
           d="m 289.113,124.103 c 0.39,-3.784 -1.39,-9.734 2.503,-10.013 -1.03,3.141 2.434,10.775 -2.503,10.013 z"
           id="path21" />
        <path
           d="m 188.987,126.606 c -4.574,0.851 -9.1,1.746 -15.019,1.251 1.243,-3.813 9.789,-6.836 13.769,-3.754 -7.763,0.486 0.084,0.641 1.25,2.503 z"
           id="path23" />
        <path
           d="m 200.253,169.159 c -0.073,-5.496 0.504,-10.345 2.503,-13.768 -1.261,4.163 2.766,13.615 -2.503,13.768 z"
           id="path25" />
        <path
           d="m 158.95,46.505 c 5.797,0.809 10.295,-4.935 15.019,0 -5.767,-1.534 -11.103,3.833 -15.019,0 z"
           id="path27" />
        <path
           d="m 46.229,20.57 c 8.204,0.277 14.635,-1.219 21.277,-2.503 -2.471,4.077 -20.887,4.58 -21.277,2.503 z"
           id="path29" />
        <path
           d="m 281.604,126.606 c 1.312,-2.515 0.599,-13.491 2.503,-11.265 0.411,4.236 -0.976,13.112 -2.503,11.265 z"
           id="path31" />
        <path
           d="m 285.358,129.109 c 0.745,-6.283 0.367,-10.093 1.252,-13.768 2.044,2.957 2.173,12.365 -1.252,13.768 z"
           id="path33" />
        <path
           d="m 367.961,126.604 c -5.002,1.868 -15.024,1.868 -20.025,0 -1.197,-7.076 1.841,-16.464 0,-20.024 -46.83,1.298 -86.581,1.938 -135.169,1.251 20.958,-7.99 48.129,-3.82 75.094,-5.007 43.017,-1.89 87.378,1.49 122.653,-7.509 4.33,-5.413 3.127,-19.587 -2.503,-22.527 2.882,6.014 0.101,13.255 -2.503,17.521 -8.105,0.18 -16.143,0.289 -21.276,-2.502 0.216,-7.711 -1.787,-17.64 5.006,-18.773 -31.898,1.353 -56.328,-3.795 -86.357,-1.252 0.331,5.869 3.998,16.742 -2.503,18.773 1.253,-5.3 2.223,-13.686 0,-18.773 -29.323,-3.635 -65.038,-0.877 -91.364,-7.51 62.248,-1.654 128.882,7.685 183.979,1.252 -0.668,-4.338 1.859,-11.87 -2.503,-12.516 0.728,4.898 -1.077,7.267 -2.503,10.013 -8.161,-0.962 -16.246,1.611 -21.275,0 0.783,-3.804 -1.603,-10.78 1.252,-12.516 -5.466,15.413 17.483,12.443 20.023,5.006 -6.653,-8.223 -20.667,-9.609 -32.541,-11.264 -47.229,-6.583 -111.254,0.445 -155.193,-10.013 36.4,2.273 86.049,1.268 121.401,2.503 7.167,0.251 22.518,6.253 21.276,-7.509 -3.388,4.539 -11.951,3.901 -20.025,3.754 -2.494,-1.276 2.634,-8.914 -1.251,-11.264 C 270.547,12.396 207.734,3.394 153.943,6.454 112.442,8.813 71.442,6.332 36.297,11.46 23.831,13.277 11.674,18.921 0.002,16.466 22.247,8.671 47.515,6.471 75.095,5.203 107.888,3.696 144.37,-1.015 176.472,0.196 c 6.743,0.256 13.555,3.074 20.025,3.756 52.454,5.521 106.536,1.751 148.937,17.521 3.519,3.539 1.673,11.946 2.503,15.02 22.246,3.101 56.888,-0.582 48.811,28.785 5.949,-0.524 9.027,1.819 13.769,2.503 4.653,6.229 8.617,18.292 5.005,28.787 -7.016,9.671 -28.406,4.97 -41.302,8.762 7.52,10.533 1.729,26.649 -6.257,32.54 -31.736,6.23 -69.292,6.638 -106.385,7.51 5.988,5.631 10.071,17.214 6.259,28.786 -27.447,16.401 -68.675,7.55 -100.125,12.516 -15.694,2.479 -21.298,6.535 -33.792,7.51 -54.56,4.252 -64.943,-32.562 -103.881,-47.561 -5.108,-1.966 -11.236,-2.437 -16.271,-3.754 -3.554,-0.933 -13.292,0.196 -13.767,-7.51 0.09,-5.264 13.964,2.216 15.02,0 -1.541,-2.722 -13.286,-6.875 -7.511,-8.762 35.521,12.869 61.882,56.016 106.385,61.327 22.711,2.71 44.086,-4.475 67.584,-6.259 25.915,-1.966 51.778,2.017 75.094,-6.258 -5.259,-2.249 -14.193,-0.824 -20.024,-2.503 -0.108,-7.2 -0.271,-14.455 1.252,-20.025 6.923,-2.259 13.888,0.48 21.276,1.252 3.234,5.568 2.444,14.378 3.754,18.773 17.154,-49.229 -104.771,-10.208 -123.904,-36.295 32.543,9.766 100.991,5.861 148.937,3.754 34.288,-1.507 102.811,3.411 81.353,-31.289 2.749,4.647 1.047,13.937 -1.256,17.522 z M 326.659,17.719 c -1.144,2.194 -0.43,6.245 -2.503,7.51 4.209,1.758 10.931,2.934 15.021,1.251 1.364,-8.457 -6.901,-7.285 -12.518,-8.761 z m 60.076,55.068 c 0,4.59 0,9.179 0,13.768 4.332,1.925 11.41,1.106 17.522,1.252 8.308,-11.294 -5.278,-20.534 -17.522,-15.02 z m -35.044,37.548 c -2.397,3.025 -0.789,10.057 -1.251,15.019 4.589,0 9.178,0 13.768,0 9.719,-7.536 -0.683,-22.006 -12.517,-15.019 z m -111.388,45.057 c -1.666,3.758 -1.273,9.576 -1.252,15.021 7.063,-0.39 11.13,2.219 18.773,1.251 2.625,-3.851 1.255,-12.357 -1.252,-15.021 -6.133,0.292 -9.475,-2.205 -16.269,-1.251 z"
           id="path35" />
      </g>
      <g
         transform="matrix(-0.33586562,-0.48446448,0.48446448,-0.33586562,255.63699,813.79591)"
         id="g2982"
         style="overflow:visible">
        <path
           d="m 0,129.734 c 5.056,1.287 3.347,9.338 10.379,8.649 2.95,-0.709 -0.364,-2.23 0,-5.189 4.51,2.985 8.768,6.223 8.649,13.838 -6.934,-2.29 -11.824,-6.629 -19.028,-8.649 0,-2.882 0,-5.767 0,-8.649 z"
           id="path3-4"
           style="fill-rule:evenodd" />
        <path
           d="m 19.028,131.464 c 3.663,16.518 24.55,15.811 34.596,25.947 -11.769,-1.308 -20.868,-9.217 -29.407,-8.649 0.714,-8.21 -5.903,-9.088 -5.189,-17.298 z"
           id="path5-0"
           style="fill-rule:evenodd" />
        <path
           d="m 247.361,153.952 c 9.951,-0.126 16.131,18.447 20.758,29.405 -8.991,-7.729 -11.192,-22.252 -20.758,-29.405 z"
           id="path7-9"
           style="fill-rule:evenodd" />
        <path
           d="m 385.745,205.845 c 4.146,3.703 -5.014,8.726 -10.379,8.649 1.757,-4.586 7.999,-4.686 10.379,-8.649 z"
           id="path9-4"
           style="fill-rule:evenodd" />
        <path
           d="m 321.743,243.901 c 4.889,3.89 -2.845,9.726 -3.46,13.838 -4.889,-3.89 2.842,-9.726 3.46,-13.838 z"
           id="path11-8"
           style="fill-rule:evenodd" />
        <path
           d="m 0,153.952 c 10.402,3.682 40.146,8.392 53.624,13.838 40.282,16.275 58.092,66.777 124.546,51.894 -6.811,-5.875 -15.101,-10.27 -22.488,-15.567 13.222,1.081 20.92,12.012 34.596,17.297 7.584,2.931 18.474,2.089 27.677,6.92 11.564,6.071 21.198,19.362 32.866,27.677 24.197,17.243 40.023,31.271 64.002,6.919 -3.854,7.102 -9.293,12.617 -19.027,13.838 18.444,3.007 35.974,-11.953 36.325,-25.946 0.427,-16.97 -25.394,-39.572 -36.325,-57.084 -19.65,-31.474 -23.18,-54.689 -36.326,-79.57 5.988,-3.042 6.72,13.99 13.838,15.568 7.606,-5.078 5.466,-19.906 15.568,-22.487 -1.614,8.764 -4.848,15.91 -6.918,24.217 5.624,3.309 9.881,3.427 13.838,1.73 6.081,-24.971 9.578,-51.964 32.865,-55.354 -13.657,11.844 -36.839,46.024 -15.568,65.732 14.236,-11.135 18.784,-31.958 34.597,-41.515 3.048,6.002 -1.768,7.836 8.648,5.189 -5.946,5.585 -16.236,6.826 -20.757,13.838 2.43,2.873 9.672,-4.067 17.297,-1.73 -15.773,4.983 -27.891,13.624 -31.135,31.137 1.87,12.262 21.477,13.787 25.946,32.865 1.311,5.597 -2.26,12.064 -1.729,17.299 2.02,19.947 29.403,38.392 39.785,15.568 2.611,5.559 -0.23,6.872 5.189,6.919 8.24,-0.327 15.966,-9.178 17.298,-20.758 C 413.257,158.717 402.915,73.221 387.474,50.164 381.857,41.777 370.48,34.865 358.068,32.867 299.823,23.487 240.399,53.523 185.089,53.624 116.64,53.749 58.111,15.278 0,5.189 0,3.459 0,1.729 0,0 c 28.95,8.619 55.573,15.987 83.03,24.217 25.389,7.61 52.703,19.662 83.03,22.488 34.634,3.226 63.573,-4.378 93.409,-10.379 44.027,-8.854 116.437,-25.423 136.653,13.838 10.15,19.708 10.938,52.111 13.839,74.381 3.635,27.895 10.597,61.064 5.189,83.03 -1.816,7.374 -10.973,14.042 -17.298,25.946 -5.971,11.24 -8.695,21.203 -15.568,25.947 -4.525,3.125 -12.553,0.71 -20.757,5.189 -8.051,4.396 -10.497,15.109 -22.488,19.028 -8.403,2.746 -20.753,1.121 -31.136,3.459 -12.255,2.761 -19.113,9.001 -27.677,8.649 -13.187,-0.541 -39.07,-11.738 -53.624,-22.488 -7.122,-5.26 -9.862,-15.02 -17.298,-20.757 C 181.946,231.443 126.512,234.907 96.867,221.411 74.727,211.331 64.076,185.845 46.703,178.167 33.106,172.16 11.336,173.103 0,169.52 0,164.33 0,159.141 0,153.952 z M 364.987,256.01 c 3.907,-6.804 8.095,-2.571 12.109,-8.649 2.249,4.296 -5.075,7.179 0,8.649 4.095,-6.283 10.517,-10.24 12.108,-19.028 -11.298,-0.811 -22.458,-1.761 -32.867,-3.46 -2.915,8.062 -3.552,24.269 8.65,22.488 z"
           id="path13-8"
           style="fill-rule:evenodd" />
        <path
           d="m 219.684,140.113 c 1.396,-5.323 10.558,10.831 10.379,1.729 6.086,5.444 12.56,10.504 13.838,20.758 -9.095,-6.473 -15.122,-16.014 -24.217,-22.487 z"
           id="path15-2"
           style="fill-rule:evenodd" />
        <path
           d="m 164.331,162.601 c 1.46,-2.458 8.919,3.65 10.379,6.919 2.568,-0.755 -0.683,-2.213 0,-5.189 7.596,6.242 14.36,13.316 22.487,19.027 -10.021,-0.957 -25.064,-11.824 -32.866,-20.757 z"
           id="path17-4"
           style="fill-rule:evenodd" />
        <path
           d="m 207.575,138.383 c -6.535,-3.267 -16.759,-2.845 -19.027,-10.379 7.358,-3.752 17.359,2.874 19.027,10.379 z"
           id="path19-5"
           style="fill-rule:evenodd" />
      </g>
      <g
         transform="matrix(0.94235565,0.33461296,-0.33461296,0.94235565,-172.81213,169.56374)"
         id="g3028"
         style="overflow:visible">
        <path
           d="m 361.405,18.798 c 0.183,3.935 -2.72,8.736 0.351,11.859 0.581,-1.918 2.404,-2.862 1.882,-1.278 3.681,-0.369 -0.205,-4.866 1.708,-7.206 -2.92,-0.673 -1.599,-2.539 -3.941,-3.375 z"
           id="path3-1"
           style="fill-rule:evenodd" />
        <path
           d="m 323.558,19.741 c -1.958,1.333 -1.575,8.389 0.848,10.972 2.115,-4.334 -1.078,-7.171 -0.848,-10.972 z"
           id="path5-7"
           style="fill-rule:evenodd" />
        <path
           d="m 373.979,89.99 c -3.714,1.095 -4.415,7.683 -4.585,10.26 3.952,-1.163 2.957,-7.273 4.585,-10.26 z"
           id="path7-1"
           style="fill-rule:evenodd" />
        <path
           d="m 321.973,72.5 c -2.411,1.459 -2.76,8.722 -4.691,12.531 4.131,-1.946 5.219,-9.416 4.691,-12.531 z"
           id="path9-1"
           style="fill-rule:evenodd" />
        <path
           d="m 270.184,127.438 c -4.752,9.811 -19.64,1.719 -24.672,-8 5.153,-4.7 10.842,-7.498 16.442,-10.608 2.885,6.549 11.457,11.943 8.23,18.608 z m -21.122,-6.01 c 4.796,2.948 9.505,7.987 15.086,8.457 11.746,-11.772 -8.793,-23.322 -15.086,-8.457 z"
           id="path11-5"
           style="fill-rule:evenodd" />
        <path
           d="m 253.646,111.17 c -2.67,-1.188 -6.125,1.818 -5.647,3.832 2.115,-0.45 3.98,-1.786 5.647,-3.832 z"
           id="path13-2"
           style="fill-rule:evenodd" />
        <path
           d="m 2.984,27.804 c 19.307,-0.023 39.398,-2.352 60.289,-3.524 19.921,-1.12 40.249,-0.095 60.179,-1.253 17.961,-1.042 38.129,-5.02 57.842,-9.561 20.324,-4.681 39.488,-12.878 57.559,-13.218 13.051,-0.246 29.157,4.603 43.064,4.315 9.181,-0.19 19.653,-2.939 30.252,-4.035 21.304,-2.203 44.943,3.055 65.787,5.389 12.365,1.385 29.646,4.323 29.889,13.256 0.524,19.289 -27.008,14.056 -36.328,16.955 -13.509,1.351 -27.446,-2.572 -41.397,-1.047 -7.37,0.806 -14.535,4.626 -21.66,5.351 -9.644,0.983 -20.19,-3.831 -27.589,5.527 42.685,20.521 87.223,26.455 127.475,49.3 5.767,34.513 -41.071,12.854 -62.277,7.074 -26.268,-7.161 -48.3,-16.484 -64.968,-13.095 -0.35,10.063 16.708,15.225 17.493,24.967 -10.56,23.538 -31.963,8.575 -42.513,32.15 -10.699,-0.138 -23.185,6.185 -32.632,6.199 -7.419,0.01 -15.125,-4.914 -25.168,-7.113 -23.599,-5.165 -59.929,-1.638 -81.196,-7.028 -22.981,-5.826 -35.052,-17.105 -52.047,-7.019 -1.775,-0.994 -3.549,-1.988 -5.325,-2.983 8.888,-5.595 19.42,-5.348 29.083,-8.189 0.795,-1.107 -2.106,-4.701 1.102,-4.046 -0.22,1.557 0.171,2.94 1.171,4.154 0.967,-2.802 -1.314,-8.549 1.813,-9.479 0.1,3.21 -0.55,6.631 1.843,9.196 21.318,-4.805 47.895,-5.07 65.761,-13.287 -18.073,0.189 -38.065,2.406 -58.541,-14.155 28.437,15.536 61.903,14.136 83.4,-1.064 -5.337,-3.071 -11.74,-3.682 -13.7,-8.847 1.478,0.828 2.957,1.657 4.436,2.487 -1.045,-6.191 -9.188,-14.342 -6.843,-18.997 -0.98,21.186 32.324,21.716 50.648,36.556 3.521,2.852 4.986,8.622 8.552,11.79 12.459,11.079 38.325,27.914 43.629,11.63 1.475,-4.527 -5.874,-17.871 -9.398,-22.763 C 255.812,93.882 245.354,80.87 236.692,74.84 221.175,64.04 201.021,63 197.47,47.026 c 5.059,3.557 6.6,8.104 13.593,11.116 3.937,-3.393 -0.896,-8.159 2.702,-8.98 0.786,2.865 0.175,8.934 4.612,8.417 3.356,-4.005 6.206,-9.805 10.124,-11.819 -2.581,5.461 -8.058,11.736 -6.682,16.081 14.856,5.141 28.032,15.589 34.783,25.328 31.917,-10.33 73.244,4.919 112.577,17.624 10.837,3.501 33.131,11.804 36.853,0.833 2.115,-6.233 -8.018,-11.988 -14.763,-15.274 C 356.887,73.608 312.162,64.025 275.72,48.906 c -1.908,-0.621 -8.7,3.843 -6.816,-0.324 10.694,-11.2 25.805,-10.954 39.771,-12.692 5.622,-0.7 11.034,-2.603 17.008,-3.294 26.229,-3.041 50.338,4.846 68.879,-2.207 6.501,-2.474 12.802,-8.383 8.456,-15.085 C 369.166,7.42 334.164,3.734 299.101,7.199 280.875,9 265.181,8.141 248.117,6.61 215.236,3.657 181.48,18.997 151.607,24.817 135.213,28.012 118.639,26.337 101.404,26.998 68.287,28.264 31.807,30.771 0,33.128 0.995,31.353 1.99,29.578 2.984,27.804 z m 261.605,63.842 c 0.395,11.847 9.998,21.099 12.129,32.457 6.438,0.748 12.617,0.576 16.336,-8.335 -5.655,-8.494 -16.405,-22.274 -28.465,-24.122 z m -43.467,23.451 c -2.333,-0.235 0.908,10.869 4.329,4.76 -2.22,-1.369 -3.948,-2.875 -4.329,-4.76 z m 34.5,21.673 c -11.813,-7.808 -30.909,-17.961 -31.703,-3.777 -8.923,-9.287 -27.699,-17.935 -34.863,-4.381 7.407,-3.651 15.946,-0.771 21.513,7.394 -0.996,1.774 -1.99,3.55 -2.985,5.324 4.788,2.848 9.016,3.707 13.418,5.189 8.938,-5.838 28.133,3.156 34.62,-9.749 z m -64.013,-4.395 c 4.305,3.021 6.208,6.721 12.316,9.237 0.995,-1.775 1.99,-3.551 2.984,-5.325 -2.4,-4.755 -11.471,-9.038 -15.3,-3.912 z"
           id="path15-7"
           style="fill-rule:evenodd" />
        <path
           d="m 320.291,21.408 c -1.362,-2.508 -1.234,5.898 -0.82,7.705 3.498,-0.554 0.371,-5.536 0.82,-7.705 z"
           id="path17-6"
           style="fill-rule:evenodd" />
        <path
           d="m 239.77,96.394 c -2.115,0.449 -3.981,1.787 -5.646,3.832 -0.551,-3.857 6.066,-4.896 7.354,-11.038 -5.153,2.885 -9.686,10.019 -12.503,13.983 3.877,-1.264 7.735,-2.605 10.795,-6.777 z"
           id="path19-1"
           style="fill-rule:evenodd" />
        <path
           d="m 61.931,91.17 c 1.902,1.954 2.553,4.263 1.951,6.924 -16.353,-0.565 -31.533,3.027 -47.544,3.672 15.331,5.78 32.779,-3.897 50.486,1.477 -0.191,-3.683 -1.925,-6.93 -2.231,-10.58 1.717,-3.636 5.314,-0.588 7.032,-4.223 -20.932,-0.899 -40.87,1.712 -60.396,5.797 14.697,1.758 33.589,-4.559 50.702,-3.067 z"
           id="path21-4"
           style="fill-rule:evenodd" />
      </g>
      <path
         id="path3234"
         d="M 192.85715,538.07647 127.14286,423.79076"
         style="fill:none;stroke:#000000;stroke-width:4;stroke-linecap:butt;stroke-linejoin:miter;stroke-miterlimit:4;stroke-opacity:1;stroke-dasharray:none;marker-end:url(#Arrow2Mend)" />
      <path
         id="path3234-2"
         d="m 193.46508,352.93031 130.62111,17.82466"
         style="fill:none;stroke:#000000;stroke-width:4;stroke-linecap:butt;stroke-linejoin:miter;stroke-miterlimit:4;stroke-opacity:1;stroke-dasharray:none;marker-end:url(#Arrow2Mend)" />
      <path
         id="path3234-8"
         d="M 416.72107,467.89521 311.4631,547.26995"
         style="fill:none;stroke:#000000;stroke-width:4;stroke-linecap:butt;stroke-linejoin:miter;stroke-miterlimit:4;stroke-opacity:1;stroke-dasharray:none;marker-end:url(#Arrow2Mend)" />
    </g>
  </g>
</svg>
